# xmcd
#
# Track frame offsets: 
#        150
#        12524
#        25735
#        37688
#        50233
#        64068
#        74602
#        87440
#        98638
#        111219
#        122997
#        133581
#        143736
#        154430
#        166289
#        179049
#        193136
#        212988
#        232342
#        252869
#        278167
#        291400
#        305681
#        319539
#
# Disc length: 4431 seconds
#
# Revision: 2
# Processed by: cddbd v1.5.2PL0 Copyright (c) Steve Scherf et al.
# Submitted via: ExactAudioCopyFreeDBPlugin 1.0
#
DISCID=78114d18
DTITLE=Various Artist - Bebop Story 084 - White Bebop Boys 08 - 1951-52
DYEAR=1951
DGENRE=Jazz
TTITLE0=Stan Getz Quartet - Melody Express
TTITLE1=Stan Getz Quartet - Yvette
TTITLE2=Stan Getz Quartet - Potterﾒs Luck
TTITLE3=Stan Getz Quartet - The Song Is You
TTITLE4=Stan Getz Quartet - Wildwood
TTITLE5=Stan Getz Quartet - Twins
TTITLE6=George Wallinton - Polka Dot
TTITLE7=George Wallinton - I'll Remember April
TTITLE8=George Wallinton - High Score
TTITLE9=George Wallinton - Hyacinth
TTITLE10=George Wallinton - Joy Bell
TTITLE11=George Wallinton - I Didn't Know What Time It Was
TTITLE12=George Wallinton - Brown Gold
TTITLE13=Art Pepper - These Foolish Things
TTITLE14=Art Pepper - Surf Ride
TTITLE15=Art Pepper - Holiday Flight
TTITLE16=Art Pepper - Tangerine
TTITLE17=Zoot Sims Sextet - Zootcase
TTITLE18=Zoot Sims Sextet - The Red Door
TTITLE19=Zoot Sims Sextet - Morning Fun
TTITLE20=Zoot Sims Sextet - Chili Pepper
TTITLE21=Art Pepper Quartet - Suzy The Poodle
TTITLE22=Art Pepper Quartet - Everything Happens To Me
TTITLE23=Art Pepper Quartet - Tickle Toe
EXTD=
EXTT0=
EXTT1=
EXTT2=
EXTT3=
EXTT4=
EXTT5=
EXTT6=
EXTT7=
EXTT8=
EXTT9=
EXTT10=
EXTT11=
EXTT12=
EXTT13=
EXTT14=
EXTT15=
EXTT16=
EXTT17=
EXTT18=
EXTT19=
EXTT20=
EXTT21=
EXTT22=
EXTT23=
PLAYORDER=
